<mxfile host="app.diagrams.net" agent="Mozilla/5.0 (Windows NT 10.0; Win64; x64) AppleWebKit/537.36 (KHTML, like Gecko) Chrome/129.0.0.0 Safari/537.36" version="24.7.16">
  <diagram name="페이지-1" id="HJiFCcUh8Hb-C5cCTWKx">
    <mxGraphModel dx="748" dy="312" grid="1" gridSize="10" guides="1" tooltips="1" connect="1" arrows="1" fold="1" page="1" pageScale="1" pageWidth="1600" pageHeight="1200" math="0" shadow="0">
      <root>
        <mxCell id="0" />
        <mxCell id="1" parent="0" />
        <mxCell id="WRtHbM2SKgDbpYg13T1c-54" value="" style="group" vertex="1" connectable="0" parent="1">
          <mxGeometry x="210" y="490" width="720" height="210" as="geometry" />
        </mxCell>
        <mxCell id="WRtHbM2SKgDbpYg13T1c-55" style="edgeStyle=orthogonalEdgeStyle;rounded=0;orthogonalLoop=1;jettySize=auto;html=1;entryX=0.5;entryY=1;entryDx=0;entryDy=0;" edge="1" parent="WRtHbM2SKgDbpYg13T1c-54" source="WRtHbM2SKgDbpYg13T1c-58" target="WRtHbM2SKgDbpYg13T1c-66">
          <mxGeometry relative="1" as="geometry" />
        </mxCell>
        <mxCell id="WRtHbM2SKgDbpYg13T1c-56" style="rounded=0;orthogonalLoop=1;jettySize=auto;html=1;exitX=1;exitY=0;exitDx=0;exitDy=0;entryX=0.5;entryY=1;entryDx=0;entryDy=0;" edge="1" parent="WRtHbM2SKgDbpYg13T1c-54" source="WRtHbM2SKgDbpYg13T1c-58" target="WRtHbM2SKgDbpYg13T1c-63">
          <mxGeometry relative="1" as="geometry" />
        </mxCell>
        <mxCell id="WRtHbM2SKgDbpYg13T1c-57" style="edgeStyle=orthogonalEdgeStyle;rounded=0;orthogonalLoop=1;jettySize=auto;html=1;entryX=0;entryY=0.5;entryDx=0;entryDy=0;" edge="1" parent="WRtHbM2SKgDbpYg13T1c-54" source="WRtHbM2SKgDbpYg13T1c-58" target="WRtHbM2SKgDbpYg13T1c-65">
          <mxGeometry relative="1" as="geometry" />
        </mxCell>
        <mxCell id="WRtHbM2SKgDbpYg13T1c-58" value="Service" style="rounded=0;whiteSpace=wrap;html=1;container=0;" vertex="1" parent="WRtHbM2SKgDbpYg13T1c-54">
          <mxGeometry x="20" y="140" width="120" height="40" as="geometry" />
        </mxCell>
        <mxCell id="WRtHbM2SKgDbpYg13T1c-59" style="edgeStyle=orthogonalEdgeStyle;rounded=0;orthogonalLoop=1;jettySize=auto;html=1;entryX=1;entryY=0.5;entryDx=0;entryDy=0;" edge="1" parent="WRtHbM2SKgDbpYg13T1c-54" source="WRtHbM2SKgDbpYg13T1c-61" target="WRtHbM2SKgDbpYg13T1c-63">
          <mxGeometry relative="1" as="geometry" />
        </mxCell>
        <mxCell id="WRtHbM2SKgDbpYg13T1c-60" style="edgeStyle=orthogonalEdgeStyle;rounded=0;orthogonalLoop=1;jettySize=auto;html=1;entryX=0.5;entryY=0;entryDx=0;entryDy=0;" edge="1" parent="WRtHbM2SKgDbpYg13T1c-54" source="WRtHbM2SKgDbpYg13T1c-61" target="WRtHbM2SKgDbpYg13T1c-65">
          <mxGeometry relative="1" as="geometry" />
        </mxCell>
        <mxCell id="WRtHbM2SKgDbpYg13T1c-61" value="Stream" style="rounded=0;whiteSpace=wrap;html=1;container=0;" vertex="1" parent="WRtHbM2SKgDbpYg13T1c-54">
          <mxGeometry x="400" y="20" width="120" height="40" as="geometry" />
        </mxCell>
        <mxCell id="WRtHbM2SKgDbpYg13T1c-62" value="Table" style="rounded=0;whiteSpace=wrap;html=1;container=0;" vertex="1" parent="WRtHbM2SKgDbpYg13T1c-54">
          <mxGeometry x="600" y="140" width="120" height="40" as="geometry" />
        </mxCell>
        <mxCell id="WRtHbM2SKgDbpYg13T1c-63" value="QueueHolder" style="rounded=0;whiteSpace=wrap;html=1;container=0;" vertex="1" parent="WRtHbM2SKgDbpYg13T1c-54">
          <mxGeometry x="200" y="20" width="120" height="40" as="geometry" />
        </mxCell>
        <mxCell id="WRtHbM2SKgDbpYg13T1c-64" style="edgeStyle=orthogonalEdgeStyle;rounded=0;orthogonalLoop=1;jettySize=auto;html=1;entryX=0;entryY=0.5;entryDx=0;entryDy=0;" edge="1" parent="WRtHbM2SKgDbpYg13T1c-54" source="WRtHbM2SKgDbpYg13T1c-65" target="WRtHbM2SKgDbpYg13T1c-62">
          <mxGeometry relative="1" as="geometry" />
        </mxCell>
        <mxCell id="WRtHbM2SKgDbpYg13T1c-65" value="Repository" style="rounded=0;whiteSpace=wrap;html=1;container=0;" vertex="1" parent="WRtHbM2SKgDbpYg13T1c-54">
          <mxGeometry x="400" y="140" width="120" height="40" as="geometry" />
        </mxCell>
        <mxCell id="WRtHbM2SKgDbpYg13T1c-66" value="ApplicationEventPublisher" style="rounded=0;whiteSpace=wrap;html=1;container=0;" vertex="1" parent="WRtHbM2SKgDbpYg13T1c-54">
          <mxGeometry y="20" width="160" height="40" as="geometry" />
        </mxCell>
        <mxCell id="WRtHbM2SKgDbpYg13T1c-67" value="Produce" style="whiteSpace=wrap;html=1;fillColor=none;strokeColor=none;container=0;" vertex="1" parent="WRtHbM2SKgDbpYg13T1c-54">
          <mxGeometry x="190" y="90" width="80" height="40" as="geometry" />
        </mxCell>
        <mxCell id="WRtHbM2SKgDbpYg13T1c-68" value="이벤트 발행" style="whiteSpace=wrap;html=1;fillColor=none;strokeColor=none;container=0;" vertex="1" parent="WRtHbM2SKgDbpYg13T1c-54">
          <mxGeometry y="80" width="80" height="40" as="geometry" />
        </mxCell>
        <mxCell id="WRtHbM2SKgDbpYg13T1c-69" value="Consume" style="whiteSpace=wrap;html=1;fillColor=none;strokeColor=none;container=0;" vertex="1" parent="WRtHbM2SKgDbpYg13T1c-54">
          <mxGeometry x="320" width="80" height="40" as="geometry" />
        </mxCell>
        <mxCell id="WRtHbM2SKgDbpYg13T1c-70" value="Persist" style="whiteSpace=wrap;html=1;fillColor=none;strokeColor=none;container=0;" vertex="1" parent="WRtHbM2SKgDbpYg13T1c-54">
          <mxGeometry x="460" y="80" width="80" height="40" as="geometry" />
        </mxCell>
        <mxCell id="WRtHbM2SKgDbpYg13T1c-71" value="Throttle" style="whiteSpace=wrap;html=1;fillColor=none;strokeColor=none;container=0;" vertex="1" parent="WRtHbM2SKgDbpYg13T1c-54">
          <mxGeometry x="520" y="120" width="80" height="40" as="geometry" />
        </mxCell>
        <mxCell id="WRtHbM2SKgDbpYg13T1c-72" value="Query" style="whiteSpace=wrap;html=1;fillColor=none;strokeColor=none;container=0;" vertex="1" parent="WRtHbM2SKgDbpYg13T1c-54">
          <mxGeometry x="230" y="150" width="80" height="40" as="geometry" />
        </mxCell>
        <mxCell id="WRtHbM2SKgDbpYg13T1c-93" value="&lt;font style=&quot;font-size: 9px;&quot;&gt;2. 300P 사용을 위해&lt;br&gt;사용자의 Point 조회&lt;/font&gt;" style="whiteSpace=wrap;html=1;fillColor=none;strokeColor=none;container=0;" vertex="1" parent="WRtHbM2SKgDbpYg13T1c-54">
          <mxGeometry x="400" y="180" width="120" height="40" as="geometry" />
        </mxCell>
        <mxCell id="WRtHbM2SKgDbpYg13T1c-94" value="&lt;font size=&quot;1&quot;&gt;3. 300P 상태의 사용자는 Insert 지연 중&lt;/font&gt;" style="whiteSpace=wrap;html=1;fillColor=none;strokeColor=none;container=0;" vertex="1" parent="WRtHbM2SKgDbpYg13T1c-54">
          <mxGeometry x="580" y="110" width="120" height="30" as="geometry" />
        </mxCell>
        <mxCell id="WRtHbM2SKgDbpYg13T1c-95" value="&lt;font size=&quot;1&quot;&gt;4. 100P 상태의 사용자로 응답&lt;/font&gt;" style="whiteSpace=wrap;html=1;fillColor=none;strokeColor=none;container=0;" vertex="1" parent="WRtHbM2SKgDbpYg13T1c-54">
          <mxGeometry x="580" y="180" width="120" height="30" as="geometry" />
        </mxCell>
        <mxCell id="WRtHbM2SKgDbpYg13T1c-121" value="" style="group" vertex="1" connectable="0" parent="1">
          <mxGeometry x="200" y="160" width="720" height="210" as="geometry" />
        </mxCell>
        <mxCell id="WRtHbM2SKgDbpYg13T1c-118" value="Listen&lt;div&gt;Event&lt;/div&gt;" style="whiteSpace=wrap;html=1;fillColor=none;strokeColor=none;container=0;movable=1;resizable=1;rotatable=1;deletable=1;editable=1;locked=0;connectable=1;" vertex="1" parent="WRtHbM2SKgDbpYg13T1c-121">
          <mxGeometry x="420" width="80" height="40" as="geometry" />
        </mxCell>
        <mxCell id="WRtHbM2SKgDbpYg13T1c-5" style="edgeStyle=orthogonalEdgeStyle;rounded=0;orthogonalLoop=1;jettySize=auto;html=1;entryX=0.5;entryY=1;entryDx=0;entryDy=0;movable=1;resizable=1;rotatable=1;deletable=1;editable=1;locked=0;connectable=1;" edge="1" parent="WRtHbM2SKgDbpYg13T1c-121" source="BCLXuLveS0CJnIkB3DvM-1" target="WRtHbM2SKgDbpYg13T1c-3">
          <mxGeometry relative="1" as="geometry" />
        </mxCell>
        <mxCell id="WRtHbM2SKgDbpYg13T1c-6" style="rounded=0;orthogonalLoop=1;jettySize=auto;html=1;exitX=1;exitY=0;exitDx=0;exitDy=0;entryX=0;entryY=1;entryDx=0;entryDy=0;movable=1;resizable=1;rotatable=1;deletable=1;editable=1;locked=0;connectable=1;" edge="1" parent="WRtHbM2SKgDbpYg13T1c-121" source="BCLXuLveS0CJnIkB3DvM-1" target="WRtHbM2SKgDbpYg13T1c-1">
          <mxGeometry relative="1" as="geometry" />
        </mxCell>
        <mxCell id="WRtHbM2SKgDbpYg13T1c-51" style="edgeStyle=orthogonalEdgeStyle;rounded=0;orthogonalLoop=1;jettySize=auto;html=1;entryX=0;entryY=0.5;entryDx=0;entryDy=0;movable=1;resizable=1;rotatable=1;deletable=1;editable=1;locked=0;connectable=1;" edge="1" parent="WRtHbM2SKgDbpYg13T1c-121" source="BCLXuLveS0CJnIkB3DvM-1" target="WRtHbM2SKgDbpYg13T1c-2">
          <mxGeometry relative="1" as="geometry" />
        </mxCell>
        <mxCell id="BCLXuLveS0CJnIkB3DvM-1" value="Service" style="rounded=0;whiteSpace=wrap;html=1;container=0;movable=1;resizable=1;rotatable=1;deletable=1;editable=1;locked=0;connectable=1;" parent="WRtHbM2SKgDbpYg13T1c-121" vertex="1">
          <mxGeometry x="20" y="160" width="120" height="40" as="geometry" />
        </mxCell>
        <mxCell id="WRtHbM2SKgDbpYg13T1c-7" style="edgeStyle=orthogonalEdgeStyle;rounded=0;orthogonalLoop=1;jettySize=auto;html=1;entryX=1;entryY=0.5;entryDx=0;entryDy=0;movable=1;resizable=1;rotatable=1;deletable=1;editable=1;locked=0;connectable=1;" edge="1" parent="WRtHbM2SKgDbpYg13T1c-121" source="BCLXuLveS0CJnIkB3DvM-2" target="WRtHbM2SKgDbpYg13T1c-1">
          <mxGeometry relative="1" as="geometry" />
        </mxCell>
        <mxCell id="WRtHbM2SKgDbpYg13T1c-8" style="edgeStyle=orthogonalEdgeStyle;rounded=0;orthogonalLoop=1;jettySize=auto;html=1;entryX=0.5;entryY=0;entryDx=0;entryDy=0;movable=1;resizable=1;rotatable=1;deletable=1;editable=1;locked=0;connectable=1;" edge="1" parent="WRtHbM2SKgDbpYg13T1c-121" source="BCLXuLveS0CJnIkB3DvM-2" target="WRtHbM2SKgDbpYg13T1c-2">
          <mxGeometry relative="1" as="geometry" />
        </mxCell>
        <mxCell id="BCLXuLveS0CJnIkB3DvM-2" value="Stream" style="rounded=0;whiteSpace=wrap;html=1;container=0;movable=1;resizable=1;rotatable=1;deletable=1;editable=1;locked=0;connectable=1;" parent="WRtHbM2SKgDbpYg13T1c-121" vertex="1">
          <mxGeometry x="400" y="40" width="120" height="40" as="geometry" />
        </mxCell>
        <mxCell id="BCLXuLveS0CJnIkB3DvM-3" value="Table" style="rounded=0;whiteSpace=wrap;html=1;container=0;movable=1;resizable=1;rotatable=1;deletable=1;editable=1;locked=0;connectable=1;" parent="WRtHbM2SKgDbpYg13T1c-121" vertex="1">
          <mxGeometry x="600" y="160" width="120" height="40" as="geometry" />
        </mxCell>
        <mxCell id="WRtHbM2SKgDbpYg13T1c-1" value="QueueHolder" style="rounded=0;whiteSpace=wrap;html=1;container=0;movable=1;resizable=1;rotatable=1;deletable=1;editable=1;locked=0;connectable=1;" vertex="1" parent="WRtHbM2SKgDbpYg13T1c-121">
          <mxGeometry x="200" y="40" width="120" height="40" as="geometry" />
        </mxCell>
        <mxCell id="WRtHbM2SKgDbpYg13T1c-9" style="edgeStyle=orthogonalEdgeStyle;rounded=0;orthogonalLoop=1;jettySize=auto;html=1;entryX=0;entryY=0.5;entryDx=0;entryDy=0;movable=1;resizable=1;rotatable=1;deletable=1;editable=1;locked=0;connectable=1;" edge="1" parent="WRtHbM2SKgDbpYg13T1c-121" source="WRtHbM2SKgDbpYg13T1c-2" target="BCLXuLveS0CJnIkB3DvM-3">
          <mxGeometry relative="1" as="geometry" />
        </mxCell>
        <mxCell id="WRtHbM2SKgDbpYg13T1c-2" value="Repository" style="rounded=0;whiteSpace=wrap;html=1;container=0;movable=1;resizable=1;rotatable=1;deletable=1;editable=1;locked=0;connectable=1;" vertex="1" parent="WRtHbM2SKgDbpYg13T1c-121">
          <mxGeometry x="400" y="160" width="120" height="40" as="geometry" />
        </mxCell>
        <mxCell id="WRtHbM2SKgDbpYg13T1c-3" value="ApplicationEventPublisher" style="rounded=0;whiteSpace=wrap;html=1;container=0;movable=1;resizable=1;rotatable=1;deletable=1;editable=1;locked=0;connectable=1;" vertex="1" parent="WRtHbM2SKgDbpYg13T1c-121">
          <mxGeometry y="40" width="160" height="40" as="geometry" />
        </mxCell>
        <mxCell id="WRtHbM2SKgDbpYg13T1c-12" value="Produce" style="whiteSpace=wrap;html=1;fillColor=none;strokeColor=none;container=0;movable=1;resizable=1;rotatable=1;deletable=1;editable=1;locked=0;connectable=1;" vertex="1" parent="WRtHbM2SKgDbpYg13T1c-121">
          <mxGeometry x="160" y="110" width="80" height="40" as="geometry" />
        </mxCell>
        <mxCell id="WRtHbM2SKgDbpYg13T1c-13" value="Publish&lt;div&gt;Event&lt;/div&gt;" style="whiteSpace=wrap;html=1;fillColor=none;strokeColor=none;container=0;movable=1;resizable=1;rotatable=1;deletable=1;editable=1;locked=0;connectable=1;" vertex="1" parent="WRtHbM2SKgDbpYg13T1c-121">
          <mxGeometry x="10" y="100" width="80" height="40" as="geometry" />
        </mxCell>
        <mxCell id="WRtHbM2SKgDbpYg13T1c-14" value="Consume" style="whiteSpace=wrap;html=1;fillColor=none;strokeColor=none;container=0;movable=1;resizable=1;rotatable=1;deletable=1;editable=1;locked=0;connectable=1;" vertex="1" parent="WRtHbM2SKgDbpYg13T1c-121">
          <mxGeometry x="320" y="30" width="80" height="40" as="geometry" />
        </mxCell>
        <mxCell id="WRtHbM2SKgDbpYg13T1c-15" value="Persist" style="whiteSpace=wrap;html=1;fillColor=none;strokeColor=none;container=0;movable=1;resizable=1;rotatable=1;deletable=1;editable=1;locked=0;connectable=1;" vertex="1" parent="WRtHbM2SKgDbpYg13T1c-121">
          <mxGeometry x="450" y="100" width="80" height="40" as="geometry" />
        </mxCell>
        <mxCell id="WRtHbM2SKgDbpYg13T1c-16" value="Throttle" style="whiteSpace=wrap;html=1;fillColor=none;strokeColor=none;container=0;movable=1;resizable=1;rotatable=1;deletable=1;editable=1;locked=0;connectable=1;" vertex="1" parent="WRtHbM2SKgDbpYg13T1c-121">
          <mxGeometry x="520" y="150" width="80" height="40" as="geometry" />
        </mxCell>
        <mxCell id="WRtHbM2SKgDbpYg13T1c-52" value="Query" style="whiteSpace=wrap;html=1;fillColor=none;strokeColor=none;container=0;movable=1;resizable=1;rotatable=1;deletable=1;editable=1;locked=0;connectable=1;" vertex="1" parent="WRtHbM2SKgDbpYg13T1c-121">
          <mxGeometry x="230" y="170" width="80" height="40" as="geometry" />
        </mxCell>
        <mxCell id="WRtHbM2SKgDbpYg13T1c-193" value="" style="group" vertex="1" connectable="0" parent="1">
          <mxGeometry x="1130" y="170" width="570" height="290" as="geometry" />
        </mxCell>
        <mxCell id="WRtHbM2SKgDbpYg13T1c-184" value="Listen&lt;div&gt;Event&lt;/div&gt;" style="whiteSpace=wrap;html=1;fillColor=none;strokeColor=none;container=0;movable=1;resizable=1;rotatable=1;deletable=1;editable=1;locked=0;connectable=1;" vertex="1" parent="WRtHbM2SKgDbpYg13T1c-193">
          <mxGeometry x="490" y="120" width="80" height="40" as="geometry" />
        </mxCell>
        <mxCell id="WRtHbM2SKgDbpYg13T1c-166" style="edgeStyle=orthogonalEdgeStyle;rounded=0;orthogonalLoop=1;jettySize=auto;html=1;entryX=0.5;entryY=1;entryDx=0;entryDy=0;movable=1;resizable=1;rotatable=1;deletable=1;editable=1;locked=0;connectable=1;" edge="1" parent="WRtHbM2SKgDbpYg13T1c-193" source="WRtHbM2SKgDbpYg13T1c-169" target="WRtHbM2SKgDbpYg13T1c-177">
          <mxGeometry relative="1" as="geometry" />
        </mxCell>
        <mxCell id="WRtHbM2SKgDbpYg13T1c-167" style="rounded=0;orthogonalLoop=1;jettySize=auto;html=1;exitX=1;exitY=0;exitDx=0;exitDy=0;entryX=0;entryY=1;entryDx=0;entryDy=0;movable=1;resizable=1;rotatable=1;deletable=1;editable=1;locked=0;connectable=1;" edge="1" parent="WRtHbM2SKgDbpYg13T1c-193" source="WRtHbM2SKgDbpYg13T1c-169" target="WRtHbM2SKgDbpYg13T1c-174">
          <mxGeometry relative="1" as="geometry" />
        </mxCell>
        <mxCell id="WRtHbM2SKgDbpYg13T1c-168" style="rounded=0;orthogonalLoop=1;jettySize=auto;html=1;entryX=0;entryY=0;entryDx=0;entryDy=0;movable=1;resizable=1;rotatable=1;deletable=1;editable=1;locked=0;connectable=1;exitX=1;exitY=1;exitDx=0;exitDy=0;" edge="1" parent="WRtHbM2SKgDbpYg13T1c-193" source="WRtHbM2SKgDbpYg13T1c-169" target="WRtHbM2SKgDbpYg13T1c-176">
          <mxGeometry relative="1" as="geometry" />
        </mxCell>
        <mxCell id="WRtHbM2SKgDbpYg13T1c-169" value="Service" style="rounded=0;whiteSpace=wrap;html=1;container=0;movable=1;resizable=1;rotatable=1;deletable=1;editable=1;locked=0;connectable=1;" vertex="1" parent="WRtHbM2SKgDbpYg13T1c-193">
          <mxGeometry x="20" y="120" width="120" height="40" as="geometry" />
        </mxCell>
        <mxCell id="WRtHbM2SKgDbpYg13T1c-170" style="rounded=0;orthogonalLoop=1;jettySize=auto;html=1;entryX=1;entryY=1;entryDx=0;entryDy=0;movable=1;resizable=1;rotatable=1;deletable=1;editable=1;locked=0;connectable=1;exitX=0;exitY=0;exitDx=0;exitDy=0;" edge="1" parent="WRtHbM2SKgDbpYg13T1c-193" source="WRtHbM2SKgDbpYg13T1c-172" target="WRtHbM2SKgDbpYg13T1c-174">
          <mxGeometry relative="1" as="geometry" />
        </mxCell>
        <mxCell id="WRtHbM2SKgDbpYg13T1c-171" style="rounded=0;orthogonalLoop=1;jettySize=auto;html=1;entryX=1;entryY=0;entryDx=0;entryDy=0;movable=1;resizable=1;rotatable=1;deletable=1;editable=1;locked=0;connectable=1;exitX=0;exitY=1;exitDx=0;exitDy=0;" edge="1" parent="WRtHbM2SKgDbpYg13T1c-193" source="WRtHbM2SKgDbpYg13T1c-172" target="WRtHbM2SKgDbpYg13T1c-176">
          <mxGeometry relative="1" as="geometry" />
        </mxCell>
        <mxCell id="WRtHbM2SKgDbpYg13T1c-188" style="edgeStyle=orthogonalEdgeStyle;rounded=0;orthogonalLoop=1;jettySize=auto;html=1;entryX=1;entryY=0.5;entryDx=0;entryDy=0;" edge="1" parent="WRtHbM2SKgDbpYg13T1c-193" source="WRtHbM2SKgDbpYg13T1c-172" target="WRtHbM2SKgDbpYg13T1c-185">
          <mxGeometry relative="1" as="geometry" />
        </mxCell>
        <mxCell id="WRtHbM2SKgDbpYg13T1c-172" value="Stream" style="rounded=0;whiteSpace=wrap;html=1;container=0;movable=1;resizable=1;rotatable=1;deletable=1;editable=1;locked=0;connectable=1;" vertex="1" parent="WRtHbM2SKgDbpYg13T1c-193">
          <mxGeometry x="380" y="120" width="120" height="40" as="geometry" />
        </mxCell>
        <mxCell id="WRtHbM2SKgDbpYg13T1c-173" value="Table" style="rounded=0;whiteSpace=wrap;html=1;container=0;movable=1;resizable=1;rotatable=1;deletable=1;editable=1;locked=0;connectable=1;" vertex="1" parent="WRtHbM2SKgDbpYg13T1c-193">
          <mxGeometry x="380" y="240" width="120" height="40" as="geometry" />
        </mxCell>
        <mxCell id="WRtHbM2SKgDbpYg13T1c-187" style="rounded=0;orthogonalLoop=1;jettySize=auto;html=1;entryX=0.5;entryY=0;entryDx=0;entryDy=0;" edge="1" parent="WRtHbM2SKgDbpYg13T1c-193" source="WRtHbM2SKgDbpYg13T1c-174" target="WRtHbM2SKgDbpYg13T1c-185">
          <mxGeometry relative="1" as="geometry" />
        </mxCell>
        <mxCell id="WRtHbM2SKgDbpYg13T1c-174" value="QueueHolder" style="rounded=0;whiteSpace=wrap;html=1;container=0;movable=1;resizable=1;rotatable=1;deletable=1;editable=1;locked=0;connectable=1;" vertex="1" parent="WRtHbM2SKgDbpYg13T1c-193">
          <mxGeometry x="200" width="120" height="40" as="geometry" />
        </mxCell>
        <mxCell id="WRtHbM2SKgDbpYg13T1c-175" style="rounded=0;orthogonalLoop=1;jettySize=auto;html=1;entryX=0;entryY=0.5;entryDx=0;entryDy=0;movable=1;resizable=1;rotatable=1;deletable=1;editable=1;locked=0;connectable=1;" edge="1" parent="WRtHbM2SKgDbpYg13T1c-193" source="WRtHbM2SKgDbpYg13T1c-176" target="WRtHbM2SKgDbpYg13T1c-173">
          <mxGeometry relative="1" as="geometry" />
        </mxCell>
        <mxCell id="WRtHbM2SKgDbpYg13T1c-186" style="rounded=0;orthogonalLoop=1;jettySize=auto;html=1;entryX=0.5;entryY=1;entryDx=0;entryDy=0;" edge="1" parent="WRtHbM2SKgDbpYg13T1c-193" source="WRtHbM2SKgDbpYg13T1c-176" target="WRtHbM2SKgDbpYg13T1c-185">
          <mxGeometry relative="1" as="geometry" />
        </mxCell>
        <mxCell id="WRtHbM2SKgDbpYg13T1c-176" value="Repository" style="rounded=0;whiteSpace=wrap;html=1;container=0;movable=1;resizable=1;rotatable=1;deletable=1;editable=1;locked=0;connectable=1;" vertex="1" parent="WRtHbM2SKgDbpYg13T1c-193">
          <mxGeometry x="200" y="240" width="120" height="40" as="geometry" />
        </mxCell>
        <mxCell id="WRtHbM2SKgDbpYg13T1c-177" value="ApplicationEventPublisher" style="rounded=0;whiteSpace=wrap;html=1;container=0;movable=1;resizable=1;rotatable=1;deletable=1;editable=1;locked=0;connectable=1;" vertex="1" parent="WRtHbM2SKgDbpYg13T1c-193">
          <mxGeometry width="160" height="40" as="geometry" />
        </mxCell>
        <mxCell id="WRtHbM2SKgDbpYg13T1c-178" value="Produce" style="whiteSpace=wrap;html=1;fillColor=none;strokeColor=none;container=0;movable=1;resizable=1;rotatable=1;deletable=1;editable=1;locked=0;connectable=1;" vertex="1" parent="WRtHbM2SKgDbpYg13T1c-193">
          <mxGeometry x="100" y="50" width="80" height="40" as="geometry" />
        </mxCell>
        <mxCell id="WRtHbM2SKgDbpYg13T1c-179" value="Publish&lt;div&gt;Event&lt;/div&gt;" style="whiteSpace=wrap;html=1;fillColor=none;strokeColor=none;container=0;movable=1;resizable=1;rotatable=1;deletable=1;editable=1;locked=0;connectable=1;" vertex="1" parent="WRtHbM2SKgDbpYg13T1c-193">
          <mxGeometry x="10" y="60" width="80" height="40" as="geometry" />
        </mxCell>
        <mxCell id="WRtHbM2SKgDbpYg13T1c-180" value="Consume" style="whiteSpace=wrap;html=1;fillColor=none;strokeColor=none;container=0;movable=1;resizable=1;rotatable=1;deletable=1;editable=1;locked=0;connectable=1;" vertex="1" parent="WRtHbM2SKgDbpYg13T1c-193">
          <mxGeometry x="340" y="50" width="80" height="40" as="geometry" />
        </mxCell>
        <mxCell id="WRtHbM2SKgDbpYg13T1c-181" value="Persist" style="whiteSpace=wrap;html=1;fillColor=none;strokeColor=none;container=0;movable=1;resizable=1;rotatable=1;deletable=1;editable=1;locked=0;connectable=1;" vertex="1" parent="WRtHbM2SKgDbpYg13T1c-193">
          <mxGeometry x="340" y="180" width="80" height="40" as="geometry" />
        </mxCell>
        <mxCell id="WRtHbM2SKgDbpYg13T1c-182" value="Throttle" style="whiteSpace=wrap;html=1;fillColor=none;strokeColor=none;container=0;movable=1;resizable=1;rotatable=1;deletable=1;editable=1;locked=0;connectable=1;" vertex="1" parent="WRtHbM2SKgDbpYg13T1c-193">
          <mxGeometry x="310" y="250" width="80" height="40" as="geometry" />
        </mxCell>
        <mxCell id="WRtHbM2SKgDbpYg13T1c-183" value="Query" style="whiteSpace=wrap;html=1;fillColor=none;strokeColor=none;container=0;movable=1;resizable=1;rotatable=1;deletable=1;editable=1;locked=0;connectable=1;" vertex="1" parent="WRtHbM2SKgDbpYg13T1c-193">
          <mxGeometry x="100" y="180" width="80" height="40" as="geometry" />
        </mxCell>
        <mxCell id="WRtHbM2SKgDbpYg13T1c-185" value="IdentityMap" style="rounded=0;whiteSpace=wrap;html=1;container=0;movable=1;resizable=1;rotatable=1;deletable=1;editable=1;locked=0;connectable=1;" vertex="1" parent="WRtHbM2SKgDbpYg13T1c-193">
          <mxGeometry x="200" y="120" width="120" height="40" as="geometry" />
        </mxCell>
        <mxCell id="WRtHbM2SKgDbpYg13T1c-189" value="Lazy&lt;div&gt;Loading&lt;/div&gt;" style="whiteSpace=wrap;html=1;fillColor=none;strokeColor=none;container=0;movable=1;resizable=1;rotatable=1;deletable=1;editable=1;locked=0;connectable=1;" vertex="1" parent="WRtHbM2SKgDbpYg13T1c-193">
          <mxGeometry x="245" y="180" width="80" height="40" as="geometry" />
        </mxCell>
        <mxCell id="WRtHbM2SKgDbpYg13T1c-191" value="Write&lt;div&gt;Through&lt;br&gt;&lt;/div&gt;" style="whiteSpace=wrap;html=1;fillColor=none;strokeColor=none;container=0;movable=1;resizable=1;rotatable=1;deletable=1;editable=1;locked=0;connectable=1;" vertex="1" parent="WRtHbM2SKgDbpYg13T1c-193">
          <mxGeometry x="245" y="60" width="80" height="40" as="geometry" />
        </mxCell>
        <mxCell id="WRtHbM2SKgDbpYg13T1c-192" value="&lt;font style=&quot;font-size: 10px;&quot;&gt;Invalidation&lt;/font&gt;" style="whiteSpace=wrap;html=1;fillColor=none;strokeColor=none;container=0;movable=1;resizable=1;rotatable=1;deletable=1;editable=1;locked=0;connectable=1;" vertex="1" parent="WRtHbM2SKgDbpYg13T1c-193">
          <mxGeometry x="310" y="130" width="80" height="40" as="geometry" />
        </mxCell>
      </root>
    </mxGraphModel>
  </diagram>
</mxfile>
